<mxfile host="Electron" modified="2023-10-30T08:04:14.218Z" agent="Mozilla/5.0 (Macintosh; Intel Mac OS X 10_15_7) AppleWebKit/537.36 (KHTML, like Gecko) draw.io/22.0.3 Chrome/114.0.5735.289 Electron/25.8.4 Safari/537.36" etag="vL7WIAgLwLMHLxZ8AhEu" version="22.0.3" type="device">
  <diagram name="第 1 页" id="Qt12Brw98Gq-G3f8EBxN">
    <mxGraphModel dx="1026" dy="658" grid="1" gridSize="10" guides="1" tooltips="1" connect="1" arrows="1" fold="1" page="1" pageScale="1" pageWidth="827" pageHeight="1169" math="0" shadow="0">
      <root>
        <mxCell id="0" />
        <mxCell id="1" parent="0" />
        <mxCell id="BFCwz6IsiF-BAtfAcDIy-2" value="&lt;font style=&quot;font-size: 24px;&quot;&gt;: Double&lt;/font&gt;" style="text;html=1;strokeColor=none;fillColor=none;align=center;verticalAlign=middle;whiteSpace=wrap;rounded=0;" parent="1" vertex="1">
          <mxGeometry x="200" y="90" width="100" height="30" as="geometry" />
        </mxCell>
        <mxCell id="BFCwz6IsiF-BAtfAcDIy-4" value="&lt;font style=&quot;font-size: 24px;&quot;&gt;: Double&lt;/font&gt;" style="text;html=1;strokeColor=none;fillColor=none;align=center;verticalAlign=middle;whiteSpace=wrap;rounded=0;" parent="1" vertex="1">
          <mxGeometry x="279.38" y="150" width="93.75" height="30" as="geometry" />
        </mxCell>
        <mxCell id="BFCwz6IsiF-BAtfAcDIy-5" value="" style="strokeWidth=2;html=1;shape=mxgraph.flowchart.annotation_2;align=left;labelPosition=right;pointerEvents=1;rotation=-90;" parent="1" vertex="1">
          <mxGeometry x="313.75" y="-21.25" width="25" height="297.5" as="geometry" />
        </mxCell>
        <mxCell id="BFCwz6IsiF-BAtfAcDIy-6" value="" style="strokeWidth=2;html=1;shape=mxgraph.flowchart.annotation_2;align=left;labelPosition=right;pointerEvents=1;rotation=-90;" parent="1" vertex="1">
          <mxGeometry x="480.01" y="-126.25" width="25" height="630" as="geometry" />
        </mxCell>
        <mxCell id="BFCwz6IsiF-BAtfAcDIy-7" value="&lt;font style=&quot;font-size: 24px;&quot;&gt;: Int&lt;/font&gt;" style="text;html=1;strokeColor=none;fillColor=none;align=center;verticalAlign=middle;whiteSpace=wrap;rounded=0;" parent="1" vertex="1">
          <mxGeometry x="445.63" y="210" width="93.75" height="30" as="geometry" />
        </mxCell>
        <mxCell id="BFCwz6IsiF-BAtfAcDIy-8" value="" style="strokeWidth=2;html=1;shape=mxgraph.flowchart.annotation_2;align=left;labelPosition=right;pointerEvents=1;rotation=-90;strokeColor=#FF0000;" parent="1" vertex="1">
          <mxGeometry x="401.5" y="-140" width="25" height="790" as="geometry" />
        </mxCell>
        <mxCell id="BFCwz6IsiF-BAtfAcDIy-9" value="&lt;font color=&quot;#ff0000&quot; style=&quot;font-size: 24px;&quot;&gt;Error: type mismatch&lt;/font&gt;" style="text;html=1;strokeColor=none;fillColor=none;align=center;verticalAlign=middle;whiteSpace=wrap;rounded=0;" parent="1" vertex="1">
          <mxGeometry x="287.5" y="276.25" width="253" height="30" as="geometry" />
        </mxCell>
        <mxCell id="BFCwz6IsiF-BAtfAcDIy-10" value="&lt;font style=&quot;font-size: 24px;&quot;&gt;: String&lt;/font&gt;" style="text;html=1;strokeColor=none;fillColor=none;align=center;verticalAlign=middle;whiteSpace=wrap;rounded=0;" parent="1" vertex="1">
          <mxGeometry x="10" y="90" width="90" height="30" as="geometry" />
        </mxCell>
        <mxCell id="D9Ym5rKdQq8ys3qsYdkk-1" value="" style="shape=image;verticalLabelPosition=bottom;labelBackgroundColor=default;verticalAlign=top;aspect=fixed;imageAspect=0;image=data:image/png,iVBORw0KGgoAAAANSUhEUgAAAzwAAABeCAYAAADmIhEiAAAMP2lDQ1BJQ0MgUHJvZmlsZQAASImVVwdYU8kWnltSIbTQpYTeBOkEkBJCCyC9CDZCEiCUGANBxV4WFVy7WMCGrooodkAsKKJYWAR7XyyoKOtiwa68SQFd95XvzffNnf/+c+Y/Z86dufcOAOonuWJxHqoBQL6oUBIfFsQYnZrGID0FVKAHyMAQeHJ5BWJWbGwUgGWw/Xt5dx0gsvaKo0zrn/3/tWjyBQU8AJBYiDP4Bbx8iA8BgFfyxJJCAIgy3mJyoViGYQXaEhggxAtlOEuBK2U4Q4H3yW0S49kQtwBAVuVyJVkAqHVAnlHEy4Iaan0QO4v4QhEA6gyI/fPzJ/IhTofYFtqIIZbpMzN+0Mn6m2bGkCaXmzWEFXORF3KwsECcx536f6bjf5f8POmgD2tYVbMl4fGyOcO83cydGCnDqhD3ijKiYyDWgviDkC+3hxilZkvDkxT2qBGvgA1zBnQhduZzgyMhNoI4VJQXHaXkMzKFoRyI4QpBpwgLOYkQ60O8UFAQkqC02SyZGK/0hdZlStgsJX+OK5H7lfm6L81NYin1X2cLOEp9TK04OzEFYirElkXC5GiI1SB2KshNiFTajCzOZkcP2kik8bL4LSGOF4jCghT6WFGmJDReaV+aXzA4X2xztpATrcQHCrMTwxX5wVp4XHn8cC5Yh0DEShrUERSMjhqcC18QHKKYO/ZMIEpKUOp8EBcGxSvG4lRxXqzSHjcX5IXJeHOI3QuKEpRj8eRCuCAV+nimuDA2UREnXpzDjYhVxIMvA1GADYIBA0hhzQATQQ4QtvfW98I7RU8o4AIJyAIC4KhkBkekyHtE8JoAisGfEAlAwdC4IHmvABRB/usQq7g6gkx5b5F8RC54AnE+iAR58F4qHyUa8pYMHkNG+A/vXFh5MN48WGX9/54fZL8zLMhEKRnpoEeG+qAlMYQYTAwnhhLtcEPcH/fFo+A1EFZXnIl7D87juz3hCaGT8JBwjdBFuDVBOFfyU5SjQBfUD1XmIuPHXODWUNMDD8L9oDpUxnVxQ+CIu0M/LDwAevaALFsZtywrjJ+0/zaDH56G0o7iTEEpepRAiu3PI9Xs1TyGVGS5/jE/ilgzhvLNHur52T/7h+zzYRv5syW2EDuItWKnsPPYMaweMLAmrAFrw47L8NDqeixfXYPe4uXx5EId4T/8DT5ZWSYLnGuce5y/KPoKBVNk72jAniieKhFmZRcyWPCLIGBwRDyn4QxXZ1c3AGTfF8Xr602c/LuB6LZ95+b9AYBf08DAwNHvXEQTAPu94PY/8p2zZcJPhwoA547wpJIiBYfLLgT4llCHO80AmAALYAvn4wo8gS8IBCEgAsSARJAKxsPos+E6l4DJYDqYA0pAGVgGVoP1YBPYCnaCPeAAqAfHwClwFlwEHeAauANXTzd4AfrAO/AZQRASQkPoiAFiilghDogrwkT8kRAkColHUpF0JAsRIVJkOjIPKUNWIOuRLUg1sh85gpxCziOdyC3kAdKDvEY+oRiqimqjxqg1OgJloiw0Ek1Ex6FZ6CS0GJ2PLkHXolXobrQOPYVeRK+hXegLtB8DmAqmi5lhjhgTY2MxWBqWiUmwmVgpVo5VYbVYI3zOV7AurBf7iBNxOs7AHeEKDseTcB4+CZ+JL8bX4zvxOrwFv4I/wPvwbwQawYjgQPAhcAijCVmEyYQSQjlhO+Ew4QzcS92Ed0QiUZdoQ/SCezGVmEOcRlxM3EDcSzxJ7CQ+IvaTSCQDkgPJjxRD4pIKSSWkdaTdpCbSZVI36QNZhWxKdiWHktPIIvJccjl5F/kE+TL5KfkzRYNiRfGhxFD4lKmUpZRtlEbKJUo35TNVk2pD9aMmUnOoc6hrqbXUM9S71DcqKirmKt4qcSpCldkqa1X2qZxTeaDyUVVL1V6VrTpWVaq6RHWH6knVW6pvaDSaNS2QlkYrpC2hVdNO0+7TPqjR1ZzUOGp8tVlqFWp1apfVXqpT1K3UWerj1YvVy9UPql9S79WgaFhrsDW4GjM1KjSOaNzQ6Neka7poxmjmay7W3KV5XvOZFknLWitEi681X2ur1mmtR3SMbkFn03n0efRt9DP0bm2ito02RztHu0x7j3a7dp+Olo67TrLOFJ0KneM6XbqYrrUuRzdPd6nuAd3rup/0jPVYegK9RXq1epf13usP0w/UF+iX6u/Vv6b/yYBhEGKQa7DcoN7gniFuaG8YZzjZcKPhGcPeYdrDfIfxhpUOOzDsthFqZG8UbzTNaKtRm1G/sYlxmLHYeJ3xaeNeE12TQJMck1UmJ0x6TOmm/qZC01WmTabPGToMFiOPsZbRwugzMzILN5OabTFrN/tsbmOeZD7XfK/5PQuqBdMi02KVRbNFn6Wp5SjL6ZY1lretKFZMq2yrNVatVu+tbaxTrBdY11s/s9G34dgU29TY3LWl2QbYTrKtsr1qR7Rj2uXabbDrsEftPeyz7SvsLzmgDp4OQocNDp3DCcO9h4uGVw2/4ajqyHIscqxxfOCk6xTlNNep3unlCMsRaSOWj2gd8c3ZwznPeZvzHRctlwiXuS6NLq9d7V15rhWuV91obqFus9wa3F65O7gL3De63/Sge4zyWODR7PHV08tT4lnr2eNl6ZXuVel1g6nNjGUuZp7zJngHec/yPub90cfTp9DngM9fvo6+ub67fJ+NtBkpGLlt5CM/cz+u3xa/Ln+Gf7r/Zv+uALMAbkBVwMNAi0B+4PbApyw7Vg5rN+tlkHOQJOhw0Hu2D3sG+2QwFhwWXBrcHqIVkhSyPuR+qHloVmhNaF+YR9i0sJPhhPDI8OXhNzjGHB6nmtMX4RUxI6IlUjUyIXJ95MMo+yhJVOModFTEqJWj7kZbRYui62NADCdmZcy9WJvYSbFH44hxsXEVcU/iXeKnx7cm0BMmJOxKeJcYlLg08U6SbZI0qTlZPXlscnXy+5TglBUpXaNHjJ4x+mKqYaowtSGNlJactj2tf0zImNVjusd6jC0Ze32czbgp486PNxyfN/74BPUJ3AkH0wnpKem70r9wY7hV3P4MTkZlRh+PzVvDe8EP5K/i9wj8BCsETzP9MldkPsvyy1qZ1ZMdkF2e3StkC9cLX+WE52zKeZ8bk7sjdyAvJW9vPjk/Pf+ISEuUK2qZaDJxysROsYO4RNw1yWfS6kl9kkjJ9gKkYFxBQ6E2/JFvk9pKf5E+KPIvqij6MDl58sEpmlNEU9qm2k9dNPVpcWjxb9PwabxpzdPNps+Z/mAGa8aWmcjMjJnNsyxmzZ/VPTts9s451Dm5c36f6zx3xdy381LmNc43nj97/qNfwn6pKVErkZTcWOC7YNNCfKFwYfsit0XrFn0r5ZdeKHMuKy/7spi3+MKvLr+u/XVgSeaS9qWeSzcuIy4TLbu+PGD5zhWaK4pXPFo5amXdKsaq0lVvV09Yfb7cvXzTGuoa6ZqutVFrG9ZZrlu27sv67PXXKoIq9lYaVS6qfL+Bv+HyxsCNtZuMN5Vt+rRZuPnmlrAtdVXWVeVbiVuLtj7Zlryt9Tfmb9XbDbeXbf+6Q7Sja2f8zpZqr+rqXUa7ltagNdKant1jd3fsCd7TUOtYu2Wv7t6yfWCfdN/z/en7rx+IPNB8kHmw9pDVocrD9MOldUjd1Lq++uz6robUhs4jEUeaG30bDx91OrrjmNmxiuM6x5eeoJ6Yf2Kgqbip/6T4ZO+prFOPmic03zk9+vTVlriW9jORZ86dDT17upXV2nTO79yx8z7nj1xgXqi/6Hmxrs2j7fDvHr8fbvdsr7vkdamhw7ujsXNk54nLAZdPXQm+cvYq5+rFa9HXOq8nXb95Y+yNrpv8m89u5d16dbvo9uc7s+8S7pbe07hXft/oftUfdn/s7fLsOv4g+EHbw4SHdx7xHr14XPD4S/f8J7Qn5U9Nn1Y/c312rCe0p+P5mOfdL8QvPveW/Kn5Z+VL25eH/gr8q61vdF/3K8mrgdeL3xi82fHW/W1zf2z//Xf57z6/L/1g8GHnR+bH1k8pn55+nvyF9GXtV7uvjd8iv90dyB8YEHMlXPmvAAYrmpkJwOsdANBSAaDD8xl1jOL8Jy+I4swqR+A/YcUZUV48AaiF/+9xvfDv5gYA+7bB4xfUVx8LQCwNgERvgLq5DdXBs5r8XCkrRHgO2BzzNSM/A/ybojhz/hD3zy2QqbqDn9t/AdYpfIJ77Dx3AAAAimVYSWZNTQAqAAAACAAEARoABQAAAAEAAAA+ARsABQAAAAEAAABGASgAAwAAAAEAAgAAh2kABAAAAAEAAABOAAAAAAAAAJAAAAABAAAAkAAAAAEAA5KGAAcAAAASAAAAeKACAAQAAAABAAADPKADAAQAAAABAAAAXgAAAABBU0NJSQAAAFNjcmVlbnNob3TClDMWAAAACXBIWXMAABYlAAAWJQFJUiTwAAAB1WlUWHRYTUw6Y29tLmFkb2JlLnhtcAAAAAAAPHg6eG1wbWV0YSB4bWxuczp4PSJhZG9iZTpuczptZXRhLyIgeDp4bXB0az0iWE1QIENvcmUgNi4wLjAiPgogICA8cmRmOlJERiB4bWxuczpyZGY9Imh0dHA6Ly93d3cudzMub3JnLzE5OTkvMDIvMjItcmRmLXN5bnRheC1ucyMiPgogICAgICA8cmRmOkRlc2NyaXB0aW9uIHJkZjphYm91dD0iIgogICAgICAgICAgICB4bWxuczpleGlmPSJodHRwOi8vbnMuYWRvYmUuY29tL2V4aWYvMS4wLyI+CiAgICAgICAgIDxleGlmOlBpeGVsWURpbWVuc2lvbj45NDwvZXhpZjpQaXhlbFlEaW1lbnNpb24+CiAgICAgICAgIDxleGlmOlBpeGVsWERpbWVuc2lvbj44Mjg8L2V4aWY6UGl4ZWxYRGltZW5zaW9uPgogICAgICAgICA8ZXhpZjpVc2VyQ29tbWVudD5TY3JlZW5zaG90PC9leGlmOlVzZXJDb21tZW50PgogICAgICA8L3JkZjpEZXNjcmlwdGlvbj4KICAgPC9yZGY6UkRGPgo8L3g6eG1wbWV0YT4KuuIaNgAAABxpRE9UAAAAAgAAAAAAAAAvAAAAKAAAAC8AAAAvAAAcZo9T2q0AABwySURBVHgB7F0HeBVF1z60FFKQKlKkG4qK8MUPlGpAlCKICUWESIBIJ3QQkBZK6BCq9CLSSegtYGgfoNI7UqV3SQ8l+ffsb+DendmbW3f37j2Hhyc7Z2dnd96ZuzvvzDlnsqQLAiSEACFACBAChAAhQAgQAoQAIUAI6BCBLER4dNiqVCVCgBAgBAgBQoAQIAQIAUKAEBARIMJDHYEQIAQIAUKAECAECAFCgBAgBHSLABEe3TYtVYwQIAQIAUKAECAECAFCgBAgBIjwUB8gBAgBQoAQIAQIAUKAECAECAHdIkCER7dNSxUjBAgBQoAQIAQIAUKAECAECAEiPNQHCAFCgBAgBAgBQoAQIAQIAUJAtwgQ4dFt01LFCAFCgBAgBAgBQoAQIAQIAUKACA/1AUKAECAECAFCgBAgBAgBQoAQ0C0CRHh027RUMUKAECAECAFCgBAgBAgBQoAQIMJDfYAQIAQIAUKAECAECAFCgBAgBHSLABEe3TYtVYwQIAQIAUKAECAECAFCgBAgBIjwUB8gBAgBQoAQIAQIAUKAECAECAHdIkCER7dNSxUjBAgBQoAQIAQIAUKAECAECAEiPNQHCAFCgBAgBAgBQoAQIAQIAUJAtwgQ4dFt01LFEIFXaQApKelGYGTNCuDpkcVIRwlCgBAgBCxFIDHJ+N2SRXit5PSkd4ulOFJ+QoAQcBwCSo6DkoXxVpow7jIUHG/huEttIcKjdgvQ/R2KQOSiVBgZmWJ0D2+vLHB5ry9kz2akpgQhQAgQAmYjcPFqGlQLjGfyb1/qDf4f0MuFAYYUhAAhoAoCSo2DXr4CeL9eHDx6YjwRNCzMA7q3dVel7oY3JcJjiAYd6wqBB4/ToXzdOKZOHVq6QcQAT0ZPCkKAECAEzEUAZ00//SYertwwns5EsrNtiTfgag8JIUAIEAJqIqD0OKj/2GRYuPo5U+XzMb6QP6+6L0UiPEyzkEIvCPQdnQyL17I/vNM7fOCdAhpYX9UL0FQPQsBFEdgY8wLa9Utiaj8vIic0/SIHoycFIeCsCKSnpwvm4cbWElgXNzc3yJaNVjS12q5Kj4Nu30uDivXZle+2QW4wcbC6E81EeLTaS+m5bELg7F+voFbzBKaMzq3dIbyPB6MnBSFACDgfAumQDo/j/4FX6Wng6+EFnm7K/rbRVr1Gs3hA8zZDKfR2VjgS7U2+goag0LFTIxAVFQXffPMNU4cBAwZAREQEoyeF+gioNQ4aND4Z5q5gJ5v3rfaG8mXUI8dEeNTvk/QEDkAgqHMixB5+yZR8dpcvvJ1P3WVV5qFIQQhIEHic8A9sPrEXjl0/Bw/iHsOD+CeQLWs2IQjHK8id0xcK5soHHxZ9DxpXDhCPJZfrLonE5sSNC3Dsxnm4/eQ+3Hp6D+48fQDPktlJDS/3nCI2/sUrQO1yH0MB37wOxWPrby8guDe7yvNTDw8IC1Hfbt2hlafCXQaBFStWQKtWrZj6du/eHSIjIxk9KdRHQK1x0L2HaYIvD7vKE/Bpdlg900s1YIjwqAY93dhRCOza/xK+7ZHIFN9DGHwMFQYhJISAVhG4/ug2jN+yEE7fumT2I5YpWAz6fNkWKhQubfY1zpLx78d3YdPxWNh0IhYSU1lSYU49qpaqCO1rBULZd0qYk93iPLjKU7d1Apw6L3jsSuScYLdeQGW7dckjUZIQsAoBIjxWwabaRWqPg4ZOToFZy1KZ+q+c4QV1q2Vn9EooiPAogTLdQzEEMEoIRk6SOhLjA1zc4wt5c9PqjmKNQTeyCIENx/bAxG2LLLrGMHOHWkEQXL0xZBH+Obus/n07RB/dDTef3LNbVVpWaQCdApqLK2V2K/TfguQGF1qwW7d3Xa0pb/r06bBr1y7m0kmTJkGZMmUYPSm0hwARnjdtcu/ePfjhhx/eKP498vf3h6FDhzJ6pRVaGAfJBUsoVSwrHFzno0qUXCI8SvdEup9DEdgW+wLa9GJngsl3x6GwU+E2IjB15zJY98dOG0sBqOnnD6ODwmwuR+0Caoxu45BHKFmgKMz5fqjdfX0Ef26o2pQ/0aKF6EQOAdOCQps3bw5r1qxhrti9ezcEBAQwelJoDwEiPG/a5NSpU1CxYsU3in+PqlWrBgcOHGD0Siu0Mg4aOC4Z5q9kfXmWT80JX9RSPqgLER6leyLdz6EINO+aCHv+x/ruxCz3ho/Kq+cs59BKU+FOjcC2U/thzKa5dqtDaG1hpadaE7uVp0ZBjiI8WJdyhUrCzOCfIEc2+5pVzFiSCsOnslGshvf0gG7fu7YvDxEeNX5F9r0nEZ43eGqd8GhlHPTn6VfwZTDrZ4kmbWjaprQQ4VEacbqfwxC4djMNPm7MOsrhEuqRaB+H3ZcKJgSsReDy/b8hZP5gk5cXzVNQXLnBoAVZhc1d9l06Clcf3DR5zZRWA8G/RAWTebR80hzCg75LhXO/DXm934LUF6lw/eFt0QSOF8hAWtevhWAPfeqHSNU2pW/eTYNKDdj3D0ZsO77VRzCls6l4p76YCI9TN5/48ER43rShlgmPlsZBuPLtL4zJbtwyjmKJSP65yQeKF1H2pUiE500fpiMnRyA8MgWmLWKd5DBQAQYsICEEtIZA58Uj4Mzty9zHQoIzKrAHVH+vMnP+uBCtrO/KCfD85QvmHCreFiKTrek+xWn9eXiExy17DmhYsZYYee2DIu/JrtBcuncdhkfNzNT/55eO46BYvkJc/KxVNglNhIN/sivMq4TIRHWECEWuKkR4nL/lHz16BHv37mUq8v7774Ofnx+j17NCy4RHa+OgSfNSYewsduW7Zzt3GNJd2SBSRHj0/Kt0obqlCmaifgFxkJAoTClI5NgWH3i3kLIzCZJHoCQhwCBw4e41CF3Id3BFsjOn7TCTkcXuPXsEwXN/hOTn7McEbzYqMAxqlfVn7usMCkPCU0RYxQmu3gTqVvhEluRI64RhrH89tAXm7FklPfU67Qh/pxUbn0P3Ycmv75FxUL92Dlg2JWdG0uX+EuFxuSbXdYW1Sni0OA6SW3Hy9soiBpJyd1OuqxDhUQ5rupMDEYja8QJCB7LBCqr5Z4cN85S3FXVgValonSAQ9stYYV+Zc9za9Pi8NTT77xfcc4bKo9fPQs/l/E3/kCis6DLRMLvTHCPhye3lC4gDEh1rpf+qSXDo8gnu5Ugqdw9YYNeobc/i06FUzTju/U5u84HCBV1z4oUID7dLkNJJEdAq4dHqOAj9eNCfRyrzInJC0y+UC15AhEfaAhpPJyUlwbNnz4ye0tPTE9566y0jnaslmnZMhP2/s6YkkcM9oVUTBacQXA14O9T3wYMH8OqV8cswf/78kD27fk2A0M+k0eTOXPTQHG11tymivw43g4Fyz/kjMGz9DAON8eHi0DFQSohM5myCZn7lhH1zkJTYIv8kxUPg9DBZ07/I1oOgUrFyttyCuRYnXnDgIZXB3TygV3vXNK0lwiPtDZR2ZgS0Sni0Og5auu459B7FrnzX+G92iPpZuQlpTRIeHNDfuXMHsmbNCgUKFBAH81kEZ10SANzVeMYM4wFOyZIl4cqVKy4LT3JKOhT9hD+rqrY5W3JyMmDM/oSEBMiVKxfkyZMHvL29XbatpBW/e/cuFCrE+lGgg2zLli2l2XWT3n76AIze+DO3Pj3rtYHAj+txzxkqkwRTtq+ndZc1acO87Wt+A21rNDW8zOWOR22cAztOH+TWu3+DdvBVpc+456xVypm1ufJqs5YJz8uXL+Hp06cQHx8vTrK4u7tD3rx5dT3hYm3f1uJ1qampgN8RbL/cuXOLbYeTwI4ULRIeLY+D5MzasI1uHvIFTw9lxveqE57r16/DggUL4OLFi+Kg/a+//hI7rrSzFilSBIoVKwZly5aFhg0bQp06dcDX11eaTffpzp07w5w5c4zqidjcvGk6apPRBTpLoJMwOgtLBW1Erx9Qpo/gR/PQoUOwfft2OHv2rNgecn0Zn/O9996DBg0aQL169aBmzZrg5aXcLIcUJzXTt27dgqJF2RWIZcuWQevWrdV8NIfee9DaqbD/4lHuPTb3ng25PDMnxRGb58OWk6wTsWGhpd9+FxZ1GG2ocrnjlUe2wsyYFdx6O4IQnr/8Cmo0Y0Ox4gMo+XHnVtgBymvXrnGd2Q1vFR4eDlevXjVUicedOnWCKlWqMHo5RdWqVcUxgNx5c/RoJfHbb7/Bli1bYNOmTYDvIJ7gZGujRo3E8UbdunV1P97A7xYSB0sFv2XvvvuupZcx+XGVf+XKlfDihfHqaL58+cR2yLggXQj9hcET5s2bBzExMYAWAlL58MMPITAwENq3bw+FCxeWns40vX79eoiL40+i4sUXLlyAcePGMeVgn+HpmYz/Kjw8PKBFixZgjwl9LYyD5OqJ0dpK1OD7WG9a4AWfVFbGmkM1woMvvwkTJjCDdznAePr69etDs2bNICQkhHdalzoiPGyzThSigERwooA0DMgBSyY5zlEYZwXxhYsfzejoaC5RZ5+Wr5k4cSJ069YNcHbRlcQVCQ861Ncd155rZuUnmHHNbzcy0y5wVjD56iREeDNHtvedC17ujp3xNOc51Mpz5MopMaId7/64koYravYU3OW8oL+x2XFG+ZuFj3tVhT7uGfd09F+0OEDLAyVkxIgRVu9kn5aWBr/++iv06dOHO0g29fw+Pj4QEREBoaGhkCOHcj4Hpp7J3ueqV68OBw/yV0JN3QvbPjIy0lQWs849fvwYkNxIBUnE/fv3RfXx48fFlf9Lly5Js8mmp0+fLn5bZTNwTtiDgHCK5apSUlLs8t1XaxzErRRH+V3PJNix15jMYrZBXT2gdwdlxj2qEJ7BgwfDmDFjOJBYp0JzIVeZISfCw/YRuVCww8I8oHtbx/2Q7P1SRNPE5cuXA85iuoq4IuF5EPdY8CvpyW3iIGEAHpbJADwtPQ2az+gN94VyzJEZbQZDxXfLmpNVl3lO/n0Bui3jr3J1qBUE3wsR4Owtcrb0Sn7c7V0nufKcgfA8efIEGjdubNWA3rDe5cuXF1fxeavShvmc8VjrhGfVqlVWmzkPGzYMhg8fbnaz2PvbburG9iI8ao2DTNXN8NyUBakwegYbUVRJPx7FCc+0adOgZ0/+x94QHEuO0XbTVfwiiPAY94yU1HQoUpW/9IzR2dBu3lHiqJfi4cOHLTLzcFT9lCjXFQnP71dPQ58V47nwDm/aFeqUN014lx7cAPNi13Kv5yn7CX4qje3sp8K7j1Z1O8/8D8I3zOY+3k9NOkO99z/lnrNFOW52CkyYy+4JpuTH3Zbnt+RarRMeNHn6/PPPAf0u7CFoQh4bGwulSpWyR3GaKUPLhGfhwoVGZm3WgIZmak2bmufP6KhvO++57UF41BwH8erE0+098hICO7GuB5j39pFcoER4akUJz7Zt20S/BR4YtuiI8LiuD8/h4y+hUTv+j+jqfl/w9XacM5yjXopoPnHkyBEoV66cLT8Lp7jWFQnPuj92wtSdy7jtg2GkMZy0nODeO81m9GJOYwjnp4l84m/OqhFToI4UYzfPg60n93FrhHsdVShcmnvOFuXOfS+hVRj/vXRH+Li76ShwpJYJD/qD4Ir5sWPHbGlO5lokPWfOnBED0TAnnVShVcKDcKJZG89XxxKosc3QVzxnzszN3B31bec9rz0Ij5rjIF6deLp/4tKhdC3+N2rLIm+o8pFtETl595TqFCU8pn5QOMjr0qWL6JODHROjpGTLlk10osPABhiF7PLly/DLL78wzo9EeFyX8Cxe+xz6jmbDHZYqlhWORPtI+7td07yXIvbjL7/8EsqUKSP+RzO1EiVKiLbJ+MLGAT7259mzZ5s0r2jTpg0sXbrUrs+rxcJckfBM3LYINhzbw22O3QMWglt2eR+BLkvC4fQt1n59ZvBPop8KbxNS/xIVYEqrgdz76V2J5n+fj+/A9ZdCnHf1X2BW+G9LcbpzPw0+/DKee9nBdT7gV1I/+/FgwJzMfD/QpIjnd4HWHpYELfD394fSpc0nqOhAPnCgfN/HgXSrVq3EZ8Cy0T/n6NGj8Pvvv0NUVBT3mTMaFX0u0T9EL4J+qBhoR04wUAAGepCKo314pPfDdI0aNcTAVZUqVYLixYuLQYJwBW/WrFmyQSjwOvTh+vbbb/HQpODkvHT7D8MLzp8/DyNHsr6W2J/QislcwWhyTZrYblKr5jjI3Lpivv98FQ83bqUxl0we4gnBgY6fBVKM8Ny+fRuQyPAEl5s3bNgA5oQSxEgeGAkLO9WuXbvE4ojwuC7hkXPUUyIErCHhQdvu3r17izbG5vqT4UsVP5q86EXYsfE3wwvZzPsNOavOFQkPbhSKG4ZKBfecif1xsVT9Oh1z9hCMiJ71Op1x0KBiTfixUSh8O6sv3Hr6/869Gefw7ztv5YfVXScbqlzmeOeZg4I52xxufTEcNYaldoQ8fw5QqIrrBC7IDEM1wlLjJKkpcoSRvHbs2AEFCxbkPj5G6UITqD17+JMTeBFG5nQVn0vcKgDJoVSUJjzjx4+Hvn37ciOboa8WRvfEbytPvvrqK9i4cSPvlEU6rYWlVnMcZAlwjdonwuFj7H6JSvk2KkZ4cEYbV3CkgiQIwyFaE2Iar0PyExYW5jIx88mHx7gH/TguGeatFEYXEmnyeQ5YMD7zpWvJZRYlsc9ipEAkLbh6aUiAzC0Io85UrlyZm91SR0tuIRpXuiLh+WHRMDh/5yrTMvl988D67vzZwYSUJGgyrRuzUuHp5gHRYdMhp/A37JexcOzGOaZcNHfb2HMmo9e7IuVFKjSe2k12n6KF7UdBmYLFHAZDvkp8woORIzGCpCuJGoQHV3bkQgTjCgEOfDPbsBvNjYKDg2HNmjXc5sJ6oTO9K4gWCM/WrVvFb64pvHFSHL+pcj5buG+Pm402pVojPGqOg0y1hfTc932SYMseNlJbp+/cYVRfD2l2u6cVIzw4C4C2vlLR27KwtH72ThPhMUa0w4AkiN7J/oDaBrnBxMGexpntnMIXK5pd2iqDBg2CsWPHMsXgZIDe91dyRcLTes4AuPH4DtPeJQsUhSWhYxg9KnCTUtysVCpjgnpCDb//iOof10yBA5dYXwUkRTv7zZNeqvv09JjlsPrIdm49a/r5w+igMO45eynRpA1N26SilPmG9L5qppUmPM+FJTYMcYzWH1JBs2NcPce/5gjusebn5ye7Ev/w4UNuOGVzynamPGoTnl69esHkyeatVKPrA5qF8wR9rypUqMA7ZbZOa4RHzXGQ2aAJGXuFJ8Oy9ewEddMvcsC8CMdOUONzKkZ4vvvuO9F+UgoOdmDsyCTmIUCExxgnuVCMPdu5w5Dujp8xMH4a61I3btwQ7ZB5V9tjNopXrlZ0rkh4goSQ1LyQ0uUKlYS5IezeOuizg747UqlS6kOY2LLfa/XwqJmw+9zh1+mMg8xM5TLy6ekvrnThihdPEI+13aZAPp/cvNN20wW0SoBT54VNeSSilPmG5LaqJpUmPOhrgpuG8gT9hqZMmcI7JavD/GiyzBO0XsENVPUuahMe9H3FzefNEVyZQ38aHuHF1bqgoCBzipHNozXC4yzjoJGRKRC5SL3olYoRng4dOsCCBQuYDmTNy4cpxIUURHiMG7vK1/Fw5QY7izqilwd0DXY3zqzRFK4UZc/OD5+NgTr0Fv7UsBlckfA0mtwZniUnGMIgHlcs6gczgocY6V+lvYJmM3vDw7gnRnoctKP5Wx7vXK/1pqKR7R/Mjwr3+mIdHTxJfAYtBX8mXgAHrGangBbw3Sf8wbA9YWjZLRFiDrL26kqZb9izLraWpTThMbXX38mTJwH9dywRXMXBATRP0Gdk2TL9/77UJDxt27aFRYsW8eCX1WHwIPTRkoo1G5FKy9Aa4XGWcdCMJakwfGqKFE4xiAsGc3G0KEZ4cCf5fv3ezEZmVAyXlS9cuKB75+yM+hr+TUxMBNxd2BJBgojRYwwFMcRlWksEQzPydjW2pAwt5C1ePQ4SEtOZR5k6zBNaf+34qB/Mja1UVKxYkWtz/McffwBGD3IWuXPnDqAJiLmCJnvo/yQVNPHjOchK8xmm33nnHafYBb3ehFDuYPy/JT+ASd/2N6wSLNofBQv3rTfSYaJP/RD4unKAkX6SEP0tWib6GwZDQJKkd0lLTwf0kbp49xq3qkpGrOs4KAnWbWPNbQPr54CfxzjefIMLgEpKpQmP3GAXAwxgoAFrRM5KBSNxYoAEvYuahGft2rUQGBhoEcRyk+yjR48GNCO3RbRGeJxlHLQs6jn0GslG1fX2ygLXD/ja0iRmXasY4dm8eTNghAye4EsIZ0hMRVThXefsOgzigMvhagjOVt2/z0Z0UuNZbLmn3A99ylBPaNNUXcKDZBZnBhMSEsSldTRPSxcGZDzBqDPnzrEO5xju9dNPP+VdojmdqUiMSjwsbk4XEhKixK1suocc4Xlf2A9mtrAvTIbcfvpAWKnok5F8/Rcd7dHhXiqmCM/eQUuE8Mv6CYUsrXtGOmLzfNhycm9G0ugvBm9Y2WWSGODB6ISDEqEDkyBqB0t4mjfMAbNGEeFB2Hfv3g0BAcbE3dbmwHdsrly5uOZM4eHhMGTIEKtuYcov5OnTp5kGQLDqphq6SE3CY000vKFDhwK2t1QwmAXPZ1aaz1TaWQiPFsZBhjguXfcceo9iCU++PFngwm4dEZ6///47U/tLjHjVrFkz+Oyzz2R9GgzBc/bjjh07wty5c1WpBq4KYdhNZ5dqgfFw8Spr0jYszAO6t1XWpA19cdA+eN++feLGobZulIZt44gBgaPa3JzfuKPujeXibyk0NNSRt7BL2Y2nduVuElo0T0H4tfOE1/fouHg4nLvNzhxjHswrFVc3aVt8IBoW7F0nhUVM4+rWwvbhgIEhlJKgzokQe5hd7ezSxh1G9nYO/0J7YaXkCg+GJsZ9/HiCZvXt2lkXijwmJgZwCw2enDhxAnCVXs+iJuFBSwC5bU3kMMc9ebp27cqcRiI0YgTrK8lkNKHQGuHR0jjIBGwwTfDfCRf8eKRSoUw22LvaW6q2e1qxFR58clNhIqU1wxWI2rVrixuC4YsEbW7z588vzebUaSI8tjef3KCiR4g7DO2hzKACd/FGc01T+zVYW9PY2FioVauWtZcreh0RHvPglgtaYBg+GiOyYWQ2qbSr+Q2E1GgqVYtpVw5asPXkPkDCJyfjW/SBT0p/JHfaIXq5oAU/Ce+lMOH95EqiJOFB53bc7JknaGnSsGFD3qlMdXKDXLxw//79XNPcTAt1ogxqEp4XL17I+rnKQTh//nzuBJgl0d7kypbrC9WqVYMDB9homnLl2EuvhXGQOXUZMS0Fpi9mgxbUrpod1s72MqcIm/IoSnjQZ6Vs2bImd8I1VRvsTC1atBBN44oXL24qq1OcI8JjezPJ2cmj/w768ThS0Felf//+Fkf8seSZbPlAW3Ife+QlwmMeisFzB8K1h7eZzLgKgb42cUJAg6aRPZg9d972zQuruk6S9cVx1bDUB/86DgNXT2bwzFD0EzYXbSxsMqq0lK0TB4+esCaszuZfaA/clCQ8coNRrIctPpH37t0D9BPkiTO9p3nPb45OLcJjrfm9KxEeNcdB5vSdjDxhI5JheTQblrqZYOY7WwEz3/8DAAD//8MOJZQAABwBSURBVO1dB3wURRd/tACpUqSHhA8QlCYdRIqAdCmK0iUQgY8mTYTgh3SkEzqEEiJIlyZRmhRBULqEJtIRpCoECKTBd+/isHe7s3t7d3u7d5c3/MLNvJmd8t+Z2flPeZPhhcmAjubcuXPQoUMHOHbsmFOpdu3aFWbOnAl+fn5OxWPkwz169ICoqChDshAQEADx8fGGpK1losOnPoN5yxMlUTatmwVipvpK5FoJkpOToWPHjrBmzRqtouTGs2XLFmjatCnXz92E165dg5CQEMOyhW2pW7duhqWvNuEeS0fCmRsXucF/+uJrGLNxPuw4fUDiH9VlJLxeoKhEzgQ9l46CUzcuMOfL3xx+gbC5/5yXbm+ynLx+Hnp/PUa2SGE1W0F4rfdl/V3pkbv8Q270y6b7QuM6Wbh+3ir86KOPYO3atZLi/fjjj1C3bl2J3BnBgQMHoEaNGtworl69CoULF+b62RKmpKRAliz897Zy5Upo27atrSg82h/L2L59e0kZ+vbtax6LSTzsFNy/fx9y584teSpPnjxw+/ZtidyWYNGiRdzvwYABA2DatGm2Hlf0P3nyJJQrV04SBuvd/v37JXJXC4waB9lbrk4DEuCHPcmSx3p2zApjBmWTyLUWZNCb8GABEhMTYdy4cTBmjPyHSk1BX3vtNVi/fj2UKlVKTXC3C4Ok77fffrMrX5GRkYCNTWyWLFkiFim6c+TIAS1btlQM4wme0xeb6tLsZ5KsVquQGbYsdh0ZjoiIgAkTJkjSFQuwjhYqVAgKFixo/gsKChIHMbvnzJkDf/75p8TPkwgPkkD8KKampkrKISe4ceMGDB8+XOKNA6RGjRpJ5EqCevXqOTyYUYpXa79BKyfBoUtx3GjHftAP/vftDIlfywp1YVDjLhK5peD9Wf3gbvzfliKzvVCOvLCy1xSJ3NMFl+5ch66Lh0Pqc359a17+HRjcpKshxXz67AUEV+dPKMVG+0PVNzMZki+jEtWT8OzevVuWRN29e5c7qFaLS4YMGbhBY2Ji4OOPP+b6eYuQCI/wJt2N8Bg1DhIQUWdr2uUx/HpC2l//r2826N81q7pInAhlCOFh+U1ISIDY2FhYtmwZfPfdd0xs1y+y/z/++AMCAwPtes5TA/fs2RPmz59vlX0cUF+/ft1Kll4cyzYkwYDRTyXFLZA3I5zcGiCRayE4e/YsvPHGG7JRYZ3s06cPhIeHQ4ECBWTDWXrg4H7btm2WIrPdkwiPJPMqBEjygoODJSGxT8AVNG80kduXwbeHt6suml9WX9jYbyZky6L8Qag3sSskpUhnz6oVLQeT236mOj1PCHjjnzvQZdEX8DRJOtmB+a9ZoiKMa90PMpj+GWGu/PkcKr33iJv0wQ0BUDw0I9fPW4V6Ep5Dhw5B1apVuVDiDpMSJUpw/WwJcbwit6MEV69at25tKwqP9ifCI7w+dyM8RoyDBDTU20rWi4d7f0s3lU3/Mjt0auWjPiIHQxpKeCzzjKs+cXFxcPz4cfjll18AB3p37tyxDCJrHzJkiKrZdtkIPMiDCI/1yzp2KhUadHpsLfzXde7HQMidU/sBD+8dsAzgIB1X2+S2PrBw4l8c9Hv6Co+4TGrc6ZHwbDy2C6b+EK0GHnOYSW0+g+rFpNsnLCN4lpwE704KtxS9tLer1gR61Wv30u3plvuPH0DnqAh4+JTf7ssFl4AZHSMgU0bjVlE27UiG8M8TuFD/dTgIsmTmenmtUE/CozQhtW/fPnj77bcdwvnKlStQpEgR7rM4WdWgQQOun7cIifAIb9LdCI8R4yABDXW2W3efQ+kG/Emg7cv8oUJp1/fXbkN4xJDh0aLTp0/D9u3bYeLEiTbJjzN7c8Vpu7ObN9hOzys8ySkA+Svz98qvmu0H9WtoO7LA7Vq4HfDRI2nDrVOnDmzduhWyZlWeiRfXr6SkJNlnaIVHjJbnu49fPQufLh+vqiC4UjG+dX+bYZXOskQ06wZNytWyGYcnBIg3kZww08oOb+se5r9Y3sKwIGwk+GTmn7XQq4wjI5/B7Bjp2ULsj7BfSm9GT8KD22Txm8gzzqzEKK0cHTx4EKpVq8ZL0mtkRHiEV+luhEfvcZCAhHrb9p9SoH2/J9wH9JoEclvCY4nK06dPAQ+gffrpp5ZiKzue5WnVqpWVzBsdRHikb7Vtnyew82cT8xGZIT2zweDu9pEPURQS55kzZ2TPjF2+fBlCQ0Mlz9gSXLx4EYoVK8YNRoSHC4tHC/9+/BBazOhjsww4aF/fdwYE+dremrniYCzM27WKG+e8sBFQuiC/fnEfsBDi1rE95w5ZSOStVf9T1kw45EM454Pb18JNZ3au/32LGxGeVVr8yVjw9cnG9ddTKLdXfWT/bNCns7Z9krhcGzZsADyrYsv4+vrqtm1UT8Lz+PFjQKU8PDN79mzo3bs3z8umDLfdN2/enBsOV5VKlizJ9fMWIREe4U26G+HBnOk5DhKQUG+bOO8ZTI4ydhLIIwgPg3TTpk2yB+2/+uorGDp0KAvqtb9EeKSvdtbSRBg1Q7qX3xWzqXIHYh3VJIOlQU1F9evXlxbMJCHCw4XF44WNpvSAJ4n8LU+scMPe6w6Ny9ZkTsXfz1dPhYMXTnDD7Ph8sen8j2P7o/GsEZ45UmPaVm0Cveu7ZutccmoK9IwZDb//dZmblVz+r0BMt/GqyCE3Ag2FpgVbKFCVv+q89Wt/qFTGtVs38ubNa3NHBCsurlhnzOj680RyhGfHjh2yfR/LoyO/RYsWhUuXLkkedUZD16xZs2QnXXGV3t5tzJLMubmACI/wguQID67y4WqfEUbPcZAj5WvV4wnsOySdmB7RLxv0DXPtJBDLr0cRHsw0akLBA81i07lzZ1i6dKlY7HVuIjzSV3okLhUafSzdz+/vlwEu/RRo+qBLn3FUsnr1aq76UVQdjeTEEcN7pyweIjwMCe/6HbNpHmw/dUC2UG8ULGremiUbwMIDFRU0mNyNq60MV3ZwhcdR4w6EB7WwDVwxCY5dPcMtRlB2f1hqIju5A3Jw/fUWnjiTCvU7SPsjzMfNX4PAxzHuqboY7kh42rVrB6tWSVcgly9fbr6mQnXhVAaUSw9Xfu7du2d6B/a/hIoVK3Kv06hcuTLgdjdvN0R4hDcst9PDyOMFeo6DBCTU2VJMitnyVeJPAn2/1B+qlHPtJBDLpccRHlTLjLM0YtOiRQvYuHGjWOx1bt7g2MhG5g4AK82oaq0RCT/a+DEVm3fffdd83kwst+VGDYOoulrOEOGRQ8az5XvPHeGqn2alWttnOuQLys2cir87Tx+EURvncsPgiguuvDhqjCY8L+AFDFsbCfvPH+MWIbtp+xqu7OR/5VWuvxHC6LVJMHi8VHNknWqZYd0815/fcUfCw/tu4btB1f6odEhrM2XKFBg8eDA3Wke2vx85cgSQ2PAMauTE1R9vN0R4hDcsp2wHQ+B9TZky6TOAF3IEoOc4yDJdNfYzf6RCrY+MmwRiefQ4wjNw4ECYPn06y//LX7yIdPHixS/d3mrhfTjSO+HBd92hfwJs2ytVyfvVkOzQra39s3ly9QfvTsKZPrFx9CLXTp06Ac5yyhkiPHLIeLYcz6PgqoyciR04DwJNKxe2DBKCTvOHwtX7N7lBV/WaCgVz5OH6qREaTXjGbp4P2+J+5mYVzzgtCR8LIbnVqX7nRuICodxe+tEDs0GvTq7fuuGOhAe3m6PyIbHp3r07LFiwQCx22o3327355pvceBo2bGhWLsP1lBHyvrssKJ7tadasGXN67S8RHuHVPnjwwKy8SJAINiMVaOk1DhJKq86GClxQkYvYvFszM6yc6fpJIJauboQH9zzmy5cP8KyDowaZM95ui8uJYjNq1Cj48ssvxWKvc/M6XiI8YCY72NjFplTxTLB3je2Bo/g5ObfSXQw7d+4EvPxSrUH169WrV1cMToRHER6P9hy+fhbsOcvfCtO0XG0Y2uwTm+XbcmIvTIxdxA1XIn8RWNR1NNdPrdBIwqN0XxGqnI7qMhJeyxeqtii6hFNSvXpmZyDkyaW9mnxxwdyR8ERFRUGPHj3EWTW7b9++7dS4gBupSSi3BQ3D48RV+fLl5R61kivN5uNE1/37973+/A4CQoTHqlqY737kaWtFco9nyo0wOOmrxzjI3rJVbfkILl59Lnns62m+0OSdLBK5qwS6EZ4qVarA4cOHoX379oCzOrVq1QK5W4vlCovaVebOncv1xhmdsmXLcv28SUiEh/82cY9o6Qb8S632r/OHkkW1W2KWOxCLxPPUqVMQFBTEz6SFFM+bdenSxULCtxLh4ePiDVLUNtZ+Hn/bDZavf4NO8EHlBrJFPX3jAvT+eiz37A4+NLPjMCgf8rrs82o8jCI8i/aug5j9m7hZRLIzq9MwKFNIfiso90EdhAtXJUHEROl2tlYNs8DCCb465ADAHQkPfvtxDMAzOB6YM2cOZM6cmeftsAwv6MbvJc9gX43nbvLnz8/zfilDjW+1a9fmnt3BQOnpDkAiPC+rhdmCq3qxsbHWwn9deKWK0uXk3Ic0EOo5DlKb3bhzqfBOO+l2NrwjMW5boK53kulOeBhIeG4B977ieYjcuZX3ql+4cMG811duyxrG9fvvv7OovfqXCI/86522KBHGz5Eumw7qlhUiemmnqlZpG1qFChXM+7nfeustbkZxhQjVq8vVZfFDRHjEiHiXe8iaaXDgj+OyhcLzN11rtQI8q8LM8xfP4YeT+2Dy99GyZAfvo4n+ZBx7xOFfIwjPoUtxMGjlJNk8o0a2Kv8pI+tvjwduh+tQXbvtSHXbP4aTZ02zLyKzaaEf1Kik7YBelMRLpzsSnmfPnplXcXgz4phxHByOHz8eypQpAwULFpS9l+xlIVVYsK/F+Hja2vBx3G2CCpDkLgxFQoR9/fnz57mp4eoO+uHOlfRgiPBYv+UZM2ZA//7yd6QNGjTIrJCjcOHCkCtXLuuHXejSaxyktgioQRc1yImNK64NEachdhtGeCwzgh0PLi+XKFHC/FegQAHAPZLXrl0zz6ygOmolgwcGkTylB0OER/4ty20nwZmE0zsCTTevyz9rjw8S8OLFiys+8t5770GlSpUAV4MSExPhxIkT5hVO3MZmjyHCYw9anhf21sN70GH+54Ca1uQMnlWpGFrKfJlmpgwZ4eiV0/DQdAGnksGzLcXzhSgFUeVnBOHZGrcfxm1eoCp/zgZ6NTCn+a4jZ+PB589dTIW3W0vfS9GQjPDLhgDTjgYtUrEdhzsSHsx1RESEeeLSdgnSyAgv3OjRo2W3xvHC79q1y+Y2YyRbqDY7JCTErKIbt7ChAiRclVIy0dHREBYWphTE7f3wjkNcqcBvlC2DCnbu3LnDDVajRg2uXCzEVbfSpUuLxWY3bg3kTX47euUD3t3YrVs3SVrOqCa3jEwuv5ZhLO284xz+/v7myXotVzf1GgdZlk3OrrTidHJrABTIq9GgTC4DIrlbEB5RnuxyduzYEWJiYnS5S8CujLkoMJ6Fwj9Lg51Eo0aNLEXp1h7+eQJs2iEdPG5e5AdvVdRuhnXevHnQq1cvTXDGVSHcWsFbHvd2woPn8tatW2fWbGMJJp6FsrXdxDK8J9uPXD4NA1ZM0KwIXzTvAY3KvK1JfER41MM4Ye4zmLJQOnCcYFKc8omGilNs5chdCQ+e1cFt53KDZlvlQn9Hzup+9tlnMHXqVDXRqw7z4YcfAl5RYO+2fNUJ6BTwn3/+gZw5c+qUGoDSvUtyBMJdCQ+CNnbsWBg+fLhT+OHqZ9as2ioz0WscZKvge39NgQ/++0QSrGndLBAzVZ8tvpaJezThqVOnjlnbitaVxRIgsnsWAnINrGNLH4gckV2zwjx//txMMrEDd8ZgZ46rPnjQcc2aNZKovJ3wSAqcTgVrDm2FWTu+cbr07ao1hV712jodD4uACA9DQvlXaSbzwt5AeCVQp+UdUzbdlfAggj///DM0btwY5La2KaPsGOF58eKFuX+dNGmSrehV+eM5ZDyD6Q0XjRLhUfXKZQPhxb14N+SKFStkw9jycAXh0WscZKtsvf6XAGtipRPQa+f6wTvVtZuAtpUP5q8b4VE64MUyo/YX984iq8YZdj8//VTaqc0fhTMOARMPgYamS0iPn5buoz/+fQAE59duCRU/2jjD4+iHFNWj4uokDlDatGlDhMe4auMWKeNKz7B1kYAqq+01eJD/y5Y9oe7rVe19VDE8ER5FeF56rjV91HuaPu5ig2qoUR21nsadCQ/igGp7+/XrB7a2qvMwc2SFh8WDCo9wYslRsoXxYPrDhg3TXMECy6Pev0R4tEH822+/NY9HHVm9dAXh0XMcJIfg5evPoXLzRxLvsq9ngp3L/TW9EF6SiIxAN8KD6V++fBn27NkDqL4Xddfb2/Eg0RkxYoR5Dy/ufSRDCPAQ+OV4CjTrKl1GDWvtA1O+0G6Vh6UdFxcHqEFw3759TKT4i9s6kKzj/uKMGdMIWHh4OCxZskTy3O7duwFXMsmkDwQeJDyC+btWw47TBxTP9TA0kOjUKVkZ/lu3jeqLStmzan6//+0n+GrLQjVBIbzW+xBWs5WqsEqBbF3KqvSsvX7BOfPBip6T7X3MKjyu7qDa1at/Wqtd9ffLAMdjAyBHkH6rO5gxPAsrd9DeKuMmB65UG7Ut6/r16+ZxwNGjR81nHPHsjK0B4+TJkwG3qDlq7t69C2PGjDGv0Ngz/ujcubOZ7OA5H28yqIUOx1V6GVzhk1PoEx8fz9Vw6qhSKjklC3h9CRJXrQ1uz8YLanF8u3//fvjrr7/g1q1bNut0kunGUFesFuo9DhLj2W/UU/hmY5JYDFofL5AkoCDQlfBY5gOXAvEsCqrvw0px8+ZNuHHjhvkPZx2wYylSpAiEhoaa/4KDg80aV2hFxxJFssshILeH9eiWAAgpqN0qD0sft01gfcaBBmoMPHv2LJw7d8584zIq4UDNQ6itpUmTJuZ6zJ6jX0KAh0ByagrsO38Ujl05A7cf3ofb8fcAyZB/Vl/I/8qrkDcot0ktc3F4x7Siky2LDy8KkumEAG7ZwK0bYjNxaHYIb0PvRoyLO7iTk5Ph4MGDgEoNcMUJzxfhHw5a8ewgbjVG1dU42VSzZk3Inl37iTJ3wIHy4N0I6D0OYmjKre4YdXaH5cswwsMyQL+EgCsQkGtwnd73genD6ePlCswpTkIgvSGQnAJQrZV0dSekUEY4uD4AfLKkN0SovIQAIeAuCBg1Duo74ims3Cxd3Tm8OQCKBGs/4awWbyI8apGicB6HwMjIZzA7Rqo1yehG53FAUoYJAUKAiwB+1PHjLjbfRPpCw9rEdsS4kJsQIAT0RUDvcdCla8+hSgvp2R0jzjOKkSbCI0aE3F6DwIP4F/Bmk0fw+MkLqzK1a+4Ds0bRKo8VKOQgBAgBuxDA1Z2KzR7BzdvWZ3dqVskMGxaQMh27wKTAhAAh4BIE9B4H9fnyKaz6znp1B88znjApjdJTWyUPTCI8PFRI5jUILF6dBEMmWM/AYuNDVbGZM3lNMakghAAhoDMCJ8+mQt320otG9672h1KvUeei8+twq+TwjBAqhHAX4+PjY5hyCnfBID3nQ69xECpwKVY7XjLJPCkiO3T9yPjzjER40nMroLITAoQAIUAIEAKEgGYIoJphd1NysGrVKvPVB5oVkiIiBDwQASI8HvjSKMuEACFACBAChAAh4H4IJCQkuN39gNHR0RAWFuZ+YFGOCAEdESDCoyPYlBQhQAgQAoQAIUAIeC8CRHi8991SyTwbASI8nv3+KPeEACFACBAChAAh4CYIEOFxkxdB2SAERAgQ4REBQk7vQCDp+hX4vVUd2cLkahMGBQaPlPV31IPStUaOcLbGw1EX1Str5KheWePhqIvqlTVyWtQrdyQ8Y0JzQYtc/taFNbm0KK8kUpOA6pU1KoSzNR6OurBe+QSHOvo4EOFxGDp60F0RwEZx+dMupk73smIW83YfAHm691MMY48npctHi3Dm46JWSvWKjxTVKz4uaqVUr/hIOVuvUlNTYeLEiZCYmHYHXGr8A3iwdTOkPvyHn+C/Ur+K1cCvQlXFMPZ4WqbbOKcfFMnGvxfK2fKK80T1SoxImptw5uOiVsrqVYkNu9U+IglHhEcCCQk8GQHWKGyRHVZGrTohSpchyv8lnPm42JJSvVJGiOqVMj5yvlSv5JBJk1O9UsZHzpfqlRwyVK+UkVH2taxXZY5cUQ6s4EuERwEc8tIXgTtRM5xacbFsFOKcZw7KASkyM2zOftwoXQFtwlnAguqVgIUaG7UjASVqRwIW1I4ELNTYqB0JKFE7ErDwlnZEhEd4p2TzYATiKoWCo41SqZP3CS4CRWZGw4MfNsHtqOlchChdLiwSIeEsQEL1SsCC2agdMSSUf6kdCfhQOxKwYDZqRwwJ5V9qRwI+6aUdEeER3jnZPBgBJDxo7O3s1XR67KAbriJpRXooXfPrMv/HOlvCWcCE2ag+MyT4v9SOBFyoHVH/zGoD9RsMCf4v9RsCLump3yDCI7x3snkwAozwYBHUdvb2dHoMGi1ID6XL0AST1pS0FTRGdpgP4cyQoPosIGFto3Yk4EHtKA0L6jeEOkHfQQELSxv1GwIa6a3fIMIjvHuyeTACloQHi2Grs3ek02PwOPNRpXQZivJkh4UgnBkSVJ8FJNJs1I4EROQGLSwEtSOGBLUjAYk0G7UjARFqRwIWaPPGfoO0tFm/Y3J5KAJiwoPFkCM9znTyDB5HOgNKl6Fnm+ywkIQzQ4LqM0OC2hFDgtqRgIS1jfoNAQ/6DqZhQf2GUCdskTsWMr21I1Zu3i9paeOhQjJDEOARHsyIuLPXotNjBbSnM6B0GWrqB2nsCcKZIUH1mdqRUBfUDlrYE9SOGBLUjqgdCXWB2pGABc+W3voNHgYoI8IjhwzJdUfgzoJIuL0wkpsuIz1advIsIUqXISEMIghnARN7P6bsSapXDAmqV7x7waheCfVDyUbtSECHvoPSy8SpHQn1Q8mW3toRDwsiPDxUSGYYAkqNMlebMHh0YC9oOXhgBaV0GRIAhLOAhaMfUxYD1SuGBNUrAQn7V0gtn0U71SsBEeqvBCyovxKwUGOjdiSg5I3tSChdmo0IjxgRchuOgFInxMucs508i5PSZUjwfwlnPi62pFSvlBGieqWMj5wv1Ss5ZNLkVK+U8ZHzpXolhwzVK2VklH2NqleWuSLCY4kG2d0GAbWNQ6uPGis4pcuQsP4lnK3xsNdF9YqPGNUrPi5qpVSv+EhRveLjolZK9YqPFNUrPi5qpUbVK5Y/IjwMCfp1OwTUNI4SG/aY7oEJ1TTvlK4UTsJZiom9EqpXUsSoXkkxsVdC9UqKGNUrKSb2SqheSRGjeiXFxF6JUfUK80mEx963ReEJAUKAECAECAFCgBAgBAgBQsBjECDC4zGvijJKCBAChAAhQAgQAoQAIUAIEAL2IkCEx17EKDwhQAgQAoQAIUAIEAKEACFACHgMAkR4POZVUUYJAUKAECAECAFCgBAgBAgBQsBeBIjw2IsYhScECAFCgBAgBAgBQoAQIAQIAY9B4P9leYwSYl6+wwAAAABJRU5ErkJggg==;" vertex="1" parent="1">
          <mxGeometry width="828" height="94" as="geometry" />
        </mxCell>
      </root>
    </mxGraphModel>
  </diagram>
</mxfile>
